<?xml version="1.0" encoding="UTF-8" standalone="no"?>
<!-- Generated by graphviz version 2.26.3 (20100126.1600)
 -->

<!-- Title: _anonymous_0 Pages: 1 -->

<svg
   xmlns:dc="http://purl.org/dc/elements/1.1/"
   xmlns:cc="http://creativecommons.org/ns#"
   xmlns:rdf="http://www.w3.org/1999/02/22-rdf-syntax-ns#"
   xmlns:svg="http://www.w3.org/2000/svg"
   xmlns="http://www.w3.org/2000/svg"
   xmlns:sodipodi="http://sodipodi.sourceforge.net/DTD/sodipodi-0.dtd"
   xmlns:inkscape="http://www.inkscape.org/namespaces/inkscape"
   width="1584pt"
   height="230pt"
   viewBox="0.00 0.00 1584.00 230.00"
   id="svg2"
   version="1.1"
   inkscape:version="0.48.1 r9760"
   sodipodi:docname="transformer_roby_complete_model.svg"
   inkscape:export-filename="/media/Data/rock/doc/src/documentation/data_processing/transformer_roby_complete_model.png"
   inkscape:export-xdpi="47.470001"
   inkscape:export-ydpi="47.470001">
  <metadata
     id="metadata214">
    <rdf:RDF>
      <cc:Work
         rdf:about="">
        <dc:format>image/svg+xml</dc:format>
        <dc:type
           rdf:resource="http://purl.org/dc/dcmitype/StillImage" />
        <dc:title></dc:title>
      </cc:Work>
    </rdf:RDF>
  </metadata>
  <defs
     id="defs212" />
  <sodipodi:namedview
     pagecolor="#ffffff"
     bordercolor="#666666"
     borderopacity="1"
     objecttolerance="10"
     gridtolerance="10"
     guidetolerance="10"
     inkscape:pageopacity="0"
     inkscape:pageshadow="2"
     inkscape:window-width="1274"
     inkscape:window-height="773"
     id="namedview210"
     showgrid="false"
     inkscape:zoom="0.75710423"
     inkscape:cx="907.79758"
     inkscape:cy="58.221501"
     inkscape:window-x="0"
     inkscape:window-y="0"
     inkscape:window-maximized="1"
     inkscape:current-layer="svg2" />
  <g
     class="cluster"
     id="graph2"
     transform="matrix(0.40358057,0,0,1.0100386,449.27551,227.17853)">
    <title
       id="title10">cluster_70316608696280</title>
    <polygon
       style="fill:none;stroke:#000000;stroke-width:1.56626737"
       id="polygon12"
       points="746,-98 182,-98 182,-98 182,-214 746,-214 " />
  </g>
  <g
     class="cluster"
     id="graph3"
     transform="matrix(0.6331026,0,0,1,285.04341,226)"
     inkscape:export-xdpi="80.216637"
     inkscape:export-ydpi="80.216637">
    <title
       id="title15">cluster_70316608707360</title>
    <polygon
       style="fill:none;stroke:#000000;stroke-width:1.25679076"
       id="polygon17"
       points="1568,-40 766,-40 766,-40 766,-168 1568,-168 " />
  </g>
  <g
     class="cluster"
     id="graph4"
     transform="matrix(0.83109891,0,0,1,127.12889,226)">
    <title
       id="title20">cluster_70316608719600</title>
    <polygon
       style="fill:none;stroke:#000000;stroke-width:1.09691668"
       id="polygon22"
       points="473,-8 473,-8 473,-84 729,-84 729,-8 " />
  </g>
  <g
     class="node"
     id="node1"
     transform="translate(4,226)">
    <title
       id="title25">outputs70316608719600</title>
    <polygon
       style="fill:none;stroke:#000000"
       id="polygon27"
       points="721,-76 721,-47 616,-47 616,-47 616,-76 " />
    <text
       style="font-size:14px;text-anchor:start;font-family:Arial"
       id="text29"
       font-size="14.00"
       y="-58.233299"
       x="624">lidar_samples</text>
    <polygon
       style="fill:none;stroke:#000000"
       id="polygon31"
       points="721,-47 721,-19 616,-19 616,-19 616,-47 " />
    <text
       style="font-size:14px;text-anchor:start;font-family:Arial"
       id="text33"
       font-size="14.00"
       y="-29.733299"
       x="653">state</text>
  </g>
  <g
     class="node"
     id="node3"
     transform="translate(4,226)">
    <title
       id="title36">inputs70316608707360</title>
    <polygon
       style="fill:none;stroke:#000000"
       id="polygon38"
       points="950,-122 950,-93 775,-93 775,-93 775,-122 " />
    <text
       style="font-size:14px;text-anchor:start;font-family:Arial"
       id="text40"
       font-size="14.00"
       y="-104.233"
       x="783">dynamic_transformations</text>
    <polygon
       style="fill:none;stroke:#000000"
       id="polygon42"
       points="950,-93 950,-65 775,-65 775,-65 775,-93 " />
    <text
       style="font-size:14px;text-anchor:start;font-family:Arial"
       id="text44"
       font-size="14.00"
       y="-75.733299"
       x="818">lidar_samples</text>
  </g>
  <g
     class="edge"
     id="edge2"
     transform="translate(4,226)">
    <title
       id="title47">outputs70316608719600:lidar_samples-&gt;inputs70316608707360:lidar_samples</title>
    <path
       style="fill:none;stroke:#000000"
       inkscape:connector-curvature="0"
       id="path49"
       d="m 716,-62 c 0,0 36.376,-9.6624 54.28,-14.4181" />
    <polygon
       style="fill:#000000;stroke:#000000"
       id="polygon51"
       points="771.234,-73.05 769.437,-79.8154 769.437,-79.8154 780,-79 " />
  </g>
  <g
     class="node"
     id="node21"
     transform="translate(42.039677,226)">
    <title
       id="title54">frames_output70316608719600</title>
    <ellipse
       style="fill:none;stroke:#ff0000"
       sodipodi:ry="11.3137"
       sodipodi:rx="33.941101"
       sodipodi:cy="-65"
       sodipodi:cx="520"
       d="m 553.9411,-65 c 0,6.248384 -15.19595,11.3137 -33.9411,11.3137 -18.74515,0 -33.9411,-5.065316 -33.9411,-11.3137 0,-6.248384 15.19595,-11.3137 33.9411,-11.3137 18.74515,0 33.9411,5.065316 33.9411,11.3137 z"
       id="ellipse56"
       ry="11.3137"
       rx="33.941101"
       cy="-65"
       cx="520" />
    <text
       style="font-size:14px;text-anchor:middle;font-family:Arial"
       id="text58"
       font-size="14.00"
       y="-60.400002"
       x="520">output=</text>
  </g>
  <g
     class="edge"
     id="edge51"
     transform="matrix(0.4293264,0,0,1,358.3883,226)">
    <title
       id="title61">outputs70316608719600:lidar_samples-&gt;frames_output70316608719600</title>
    <path
       style="fill:none;stroke:#000000;stroke-width:1.52618158"
       inkscape:connector-curvature="0"
       id="path63"
       d="m 621,-62 c 0,0 -37.746,-1.1212 -67.087,-1.9927" />
  </g>
  <g
     class="node"
     id="node13"
     transform="translate(-264.68798,235.57858)">
    <title
       id="title66">frames_body70316608707360</title>
    <ellipse
       style="fill:none;stroke:#ff0000"
       sodipodi:ry="11.3137"
       sodipodi:rx="27.788099"
       sodipodi:cy="-71"
       sodipodi:cx="1257"
       d="m 1284.7881,-71 c 0,6.248384 -12.4412,11.3137 -27.7881,11.3137 -15.3469,0 -27.7881,-5.065316 -27.7881,-11.3137 0,-6.248384 12.4412,-11.3137 27.7881,-11.3137 15.3469,0 27.7881,5.065316 27.7881,11.3137 z"
       id="ellipse68"
       ry="11.3137"
       rx="27.788099"
       cy="-71"
       cx="1257" />
    <text
       style="font-size:14px;text-anchor:middle;font-family:Arial"
       id="text70"
       font-size="14.00"
       y="-66.400002"
       x="1257">body=</text>
  </g>
  <g
     class="node"
     id="node14"
     transform="translate(-20.656604,193.77194)">
    <title
       id="title73">frames_input70316608707360</title>
    <ellipse
       style="fill:none;stroke:#ff0000"
       sodipodi:ry="11.3137"
       sodipodi:rx="27.0758"
       sodipodi:cy="-94"
       sodipodi:cx="1014"
       d="m 1041.0758,-94 c 0,6.248384 -12.1222,11.3137 -27.0758,11.3137 -14.95355,0 -27.0758,-5.065316 -27.0758,-11.3137 0,-6.24838 12.12225,-11.3137 27.0758,-11.3137 14.9536,0 27.0758,5.06532 27.0758,11.3137 z"
       id="ellipse75"
       ry="11.3137"
       rx="27.0758"
       cy="-94"
       cx="1014" />
    <text
       style="font-size:14px;text-anchor:middle;font-family:Arial"
       id="text77"
       font-size="14.00"
       y="-89.400002"
       x="1014">input=</text>
  </g>
  <g
     class="edge"
     id="edge45"
     transform="matrix(0.430115,0,0,4.2625794,542.24923,481.59934)">
    <title
       id="title80">inputs70316608707360:lidar_samples-&gt;frames_input70316608707360</title>
    <path
       style="fill:none;stroke:#000000;stroke-width:0.73853564"
       inkscape:connector-curvature="0"
       id="path82"
       d="m 945,-79 c 0,0 24.646,-5.3579 44.479,-9.6693" />
  </g>
  <g
     class="node"
     id="node16"
     transform="translate(-125.41968,223.85558)">
    <title
       id="title85">label70316608707360</title>
    <polygon
       style="fill:none;stroke:#ffffff"
       id="polygon87"
       points="1078.5,-139.5 1078.5,-160.5 1191.5,-160.5 1191.5,-139.5 1078.5,-139.5 " />
    <text
       style="font-size:14px;text-anchor:start;font-family:Arial"
       id="text89"
       font-size="14.00"
       y="-146.233"
       x="1029.1105">LaserFilter::Task</text>
  </g>
  <g
     class="node"
     id="node4"
     transform="translate(4,226)">
    <title
       id="title92">outputs70316608696280</title>
    <polygon
       style="fill:none;stroke:#000000"
       id="polygon94"
       points="738,-168 738,-139 599,-139 599,-139 599,-168 " />
    <text
       style="font-size:14px;text-anchor:start;font-family:Arial"
       id="text96"
       font-size="14.00"
       y="-150.233"
       x="653">state</text>
    <polygon
       style="fill:none;stroke:#000000"
       id="polygon98"
       points="738,-139 738,-111 599,-111 599,-111 599,-139 " />
    <text
       style="font-size:14px;text-anchor:start;font-family:Arial"
       id="text100"
       font-size="14.00"
       y="-121.733"
       x="607">transform_samples</text>
  </g>
  <g
     class="edge"
     id="edge4"
     transform="translate(4,226)">
    <title
       id="title103">outputs70316608696280:transform_samples-&gt;inputs70316608707360:dynamic_transformations</title>
    <path
       style="fill:none;stroke:#000000"
       inkscape:connector-curvature="0"
       id="path105"
       d="m 733,-125 c 0,0 23.755,8.592 37.489,13.56" />
    <polygon
       style="fill:#000000;stroke:#000000"
       id="polygon107"
       points="769.406,-108.11 771.787,-114.693 771.787,-114.693 780,-108 " />
  </g>
  <g
     class="node"
     id="node9"
     transform="matrix(0.81050372,0.58573349,-0.58573349,0.81050372,187.28233,-38.21972)">
    <title
       id="title110">frames_lower_upper_producer70316608696280</title>
    <ellipse
       style="fill:none;stroke:#000000;stroke-width:1"
       sodipodi:ry="3.5"
       sodipodi:rx="3"
       sodipodi:cy="-125"
       sodipodi:cx="365"
       d="m 368,-125 c 0,1.933 -1.34315,3.5 -3,3.5 -1.65685,0 -3,-1.567 -3,-3.5 0,-1.933 1.34315,-3.5 3,-3.5 1.65685,0 3,1.567 3,3.5 z"
       id="ellipse112"
       ry="3.5"
       rx="3"
       cy="-125"
       cx="365" />
  </g>
  <g
     class="edge"
     id="edge29"
     transform="matrix(0.40553591,0,0,1.0203203,363.35354,228.79405)">
    <title
       id="title115">outputs70316608696280:transform_samples-&gt;frames_lower_upper_producer70316608696280</title>
    <path
       style="fill:none;stroke:#000000;stroke-width:1.55459428"
       inkscape:connector-curvature="0"
       id="path117"
       d="m 604,-125 -86.29492,-27.0164 -33.87172,0"
       sodipodi:nodetypes="ccc" />
  </g>
  <g
     class="node"
     id="node7"
     transform="translate(346.35709,172.11046)">
    <title
       id="title120">frames_lower70316608696280</title>
    <ellipse
       style="fill:none;stroke:#ff0000"
       sodipodi:ry="11.3137"
       sodipodi:rx="29.907101"
       sodipodi:cy="-133"
       sodipodi:cx="221"
       d="m 250.9071,-133 c 0,6.24838 -13.38986,11.3137 -29.9071,11.3137 -16.51724,0 -29.9071,-5.06532 -29.9071,-11.3137 0,-6.24838 13.38986,-11.3137 29.9071,-11.3137 16.51724,0 29.9071,5.06532 29.9071,11.3137 z"
       id="ellipse122"
       ry="11.3137"
       rx="29.907101"
       cy="-133"
       cx="221" />
    <text
       style="font-size:14px;text-anchor:middle;font-family:Arial"
       id="text124"
       font-size="14.00"
       y="-128.39999"
       x="221">lower=</text>
  </g>
  <g
     class="edge"
     id="edge25"
     transform="matrix(0.10160238,0.07342584,-1.531195,2.118778,327.69137,309.23375)">
    <title
       id="title127">frames_lower70316608696280-&gt;frames_lower_upper_producer70316608696280</title>
    <path
       style="fill:none;stroke:#000000;stroke-width:1.74686909"
       inkscape:connector-curvature="0"
       id="path129"
       d="m 251.187,-131.323 c 36.617,2.034 95.316,5.295 110.261,6.126" />
  </g>
  <g
     class="node"
     id="node8"
     transform="translate(45.473814,226.26416)">
    <title
       id="title132">frames_upper70316608696280</title>
    <ellipse
       style="fill:none;stroke:#ff0000"
       sodipodi:ry="11.3137"
       sodipodi:rx="32.026501"
       sodipodi:cy="-117"
       sodipodi:cx="520"
       d="m 552.0265,-117 c 0,6.24838 -14.33875,11.3137 -32.0265,11.3137 -17.68775,0 -32.0265,-5.06532 -32.0265,-11.3137 0,-6.24838 14.33875,-11.3137 32.0265,-11.3137 17.68775,0 32.0265,5.06532 32.0265,11.3137 z"
       id="ellipse134"
       ry="11.3137"
       rx="32.026501"
       cy="-117"
       cx="520" />
    <text
       style="font-size:14px;text-anchor:middle;font-family:Arial"
       id="text136"
       font-size="14.00"
       y="-112.4"
       x="520">upper=</text>
  </g>
  <path
     d="m 557.3433,77.473178 c 0.44686,1.593318 2.16312,7.711996 3.39636,12.108288"
     id="path141"
     inkscape:connector-curvature="0"
     style="fill:none;stroke:#000000;stroke-width:0.99999988" />
  <polygon
     points="477.651,-115.681 478.011,-122.672 478.011,-122.672 487.818,-118.661 "
     id="polygon143"
     style="fill:#000000;stroke:#000000;stroke-width:1"
     transform="matrix(0.31794618,0.94810876,-0.94810876,0.31794618,295.47018,-325.83338)" />
  <g
     class="node"
     id="node10"
     transform="translate(122.87399,221.77337)">
    <title
       id="title146">label70316608696280</title>
    <polygon
       style="fill:none;stroke:#ffffff"
       id="polygon148"
       points="478.5,-185.5 478.5,-206.5 561.5,-206.5 561.5,-185.5 478.5,-185.5 " />
    <text
       style="font-size:14px;text-anchor:start;font-family:Arial"
       id="text150"
       font-size="14.00"
       y="-192.233"
       x="483">Servo::Task</text>
  </g>
  <g
     class="node"
     id="node18"
     transform="translate(-288.29892,226)">
    <title
       id="title153">outputs70316608707360</title>
    <polygon
       style="fill:none;stroke:#000000"
       id="polygon155"
       points="1323,-131 1323,-160 1560,-160 1560,-131 1323,-131 " />
    <text
       style="font-size:14px;text-anchor:start;font-family:Arial"
       id="text157"
       font-size="14.00"
       y="-142.233"
       x="1388.5">filtered_samples</text>
    <polygon
       style="fill:none;stroke:#000000"
       id="polygon159"
       points="1323,-103 1323,-131 1560,-131 1560,-103 1323,-103 " />
    <text
       style="font-size:14px;text-anchor:start;font-family:Arial"
       id="text161"
       font-size="14.00"
       y="-113.733"
       x="1426">state</text>
    <polygon
       style="fill:none;stroke:#000000"
       id="polygon163"
       points="1323,-75 1323,-103 1560,-103 1560,-75 1323,-75 " />
    <text
       style="font-size:14px;text-anchor:start;font-family:Arial"
       id="text165"
       font-size="14.00"
       y="-85.733299"
       x="1382">transformer_status</text>
    <polygon
       style="fill:none;stroke:#000000"
       id="polygon167"
       points="1323,-47 1323,-75 1560,-75 1560,-47 1323,-47 " />
    <text
       style="font-size:14px;text-anchor:start;font-family:Arial"
       id="text169"
       font-size="14.00"
       y="-57.733299"
       x="1331">transformer_stream_aligner_status</text>
  </g>
  <g
     class="node"
     id="node15"
     transform="matrix(0.2749983,0.96144471,-0.96144471,0.2749983,604.18972,-938.2542)">
    <title
       id="title172">frames_input_body_producer70316608707360</title>
    <ellipse
       style="fill:none;stroke:#000000;stroke-width:1"
       sodipodi:ry="3.5"
       sodipodi:rx="3"
       sodipodi:cy="-79"
       sodipodi:cx="1135"
       d="m 1138,-79 c 0,1.932997 -1.3431,3.5 -3,3.5 -1.6569,0 -3,-1.567003 -3,-3.5 0,-1.932997 1.3431,-3.5 3,-3.5 1.6569,0 3,1.567003 3,3.5 z"
       id="ellipse174"
       ry="3.5"
       rx="3"
       cy="-79"
       cx="1135" />
  </g>
  <g
     class="edge"
     id="edge39"
     transform="matrix(0.05460369,0.19090455,-0.22898384,0.06549536,912.14426,-81.660401)">
    <title
       id="title177">frames_input70316608707360-&gt;frames_input_body_producer70316608707360</title>
    <path
       style="fill:none;stroke:#000000;stroke-width:4.59847403"
       inkscape:connector-curvature="0"
       id="path179"
       d="m 1040.55,-90.7082 c 30.34,3.7601 77.5,9.6066 90.83,11.2594" />
  </g>
  <path
     d="m 992.55103,134.45195 c 0.3529,2.23349 1.5142,9.58278 2.4198,15.31486"
     id="path184"
     inkscape:connector-curvature="0"
     style="fill:none;stroke:#000000;stroke-width:1" />
  <polygon
     points="1228.73,-72.8539 1218.52,-70.0158 1218.98,-77.0008 1218.98,-77.0008 "
     id="polygon186"
     style="fill:#000000;stroke:#000000;stroke-width:1"
     transform="matrix(0.2749983,0.96144471,-0.96144471,0.2749983,587.85089,-1008.9627)" />
  <g
     class="edge"
     id="edge43"
     transform="matrix(0.05273004,0,0,0.44405288,965.72612,142.704)">
    <title
       id="title189">outputs70316608707360:filtered_samples-&gt;frames_input70316608707360</title>
    <path
       style="fill:none;stroke:#000000;stroke-width:6.53512049"
       inkscape:connector-curvature="0"
       id="path191"
       d="m 1307.0356,-143.80752 c 0,0 -268.1521,45.857484 -266.4556,46.29012"
       sodipodi:nodetypes="cc" />
  </g>
  <g
     class="node"
     id="node22"
     transform="translate(58.946199,215.96175)">
    <title
       id="title194">label70316608719600</title>
    <polygon
       style="fill:none;stroke:#ffffff"
       id="polygon196"
       points="481.5,-15.5 481.5,-15.5 481.5,-36.5 558.5,-36.5 558.5,-15.5 " />
    <text
       style="font-size:14px;text-anchor:start;font-family:Arial"
       id="text198"
       font-size="14.00"
       y="-22.233299"
       x="486">Lidar::Task</text>
  </g>
  <g
     class="node"
     id="node24"
     transform="translate(4,226)">
    <title
       id="title201">inputs70316608696280</title>
  </g>
  <g
     class="node"
     id="node40"
     transform="translate(4,226)">
    <title
       id="title206">inputs70316608719600</title>
  </g>
</svg>
