<?xml version="1.0" encoding="UTF-8" standalone="no"?>
<!-- Generated by graphviz version 2.26.3 (20100126.1600)
 -->

<!-- Title: _anonymous_0 Pages: 1 -->

<svg
   xmlns:dc="http://purl.org/dc/elements/1.1/"
   xmlns:cc="http://creativecommons.org/ns#"
   xmlns:rdf="http://www.w3.org/1999/02/22-rdf-syntax-ns#"
   xmlns:svg="http://www.w3.org/2000/svg"
   xmlns="http://www.w3.org/2000/svg"
   xmlns:sodipodi="http://sodipodi.sourceforge.net/DTD/sodipodi-0.dtd"
   xmlns:inkscape="http://www.inkscape.org/namespaces/inkscape"
   width="1082pt"
   height="163pt"
   viewBox="0.00 0.00 1082.00 163.00"
   id="svg2"
   version="1.1"
   inkscape:version="0.48.1 r9760"
   sodipodi:docname="transformer_roby_initial.svg"
   inkscape:export-filename="/media/Data/rock/doc/src/documentation/data_processing/transformer_roby_initial.png"
   inkscape:export-xdpi="40.08744"
   inkscape:export-ydpi="40.08744">
  <metadata
     id="metadata116">
    <rdf:RDF>
      <cc:Work
         rdf:about="">
        <dc:format>image/svg+xml</dc:format>
        <dc:type
           rdf:resource="http://purl.org/dc/dcmitype/StillImage" />
        <dc:title></dc:title>
      </cc:Work>
    </rdf:RDF>
  </metadata>
  <defs
     id="defs114" />
  <sodipodi:namedview
     pagecolor="#ffffff"
     bordercolor="#666666"
     borderopacity="1"
     objecttolerance="10"
     gridtolerance="10"
     guidetolerance="10"
     inkscape:pageopacity="0"
     inkscape:pageshadow="2"
     inkscape:window-width="1274"
     inkscape:window-height="773"
     id="namedview112"
     showgrid="false"
     inkscape:zoom="0.55418351"
     inkscape:cx="1051.5408"
     inkscape:cy="10.155093"
     inkscape:window-x="0"
     inkscape:window-y="0"
     inkscape:window-maximized="1"
     inkscape:current-layer="svg2" />
  <g
     class="cluster"
     id="graph2"
     transform="matrix(0.77875033,0,0,1,62.409913,159)">
    <title
       id="title10">cluster_69969828663460</title>
    <polygon
       style="fill:none;stroke:#000000;stroke-width:1.13318515"
       id="polygon12"
       points="264,-147 1066,-147 1066,-19 264,-19 264,-19 " />
  </g>
  <g
     class="cluster"
     id="graph3"
     transform="translate(4,159)">
    <title
       id="title15">cluster_69969828675660</title>
    <polygon
       style="fill:none;stroke:#000000;stroke-width:1.06372094"
       transform="matrix(0.88378077,0,0,1,28.357492,0)"
       id="polygon17"
       points="8,-8 8,-8 8,-80 244,-80 244,-8 " />
  </g>
  <g
     class="node"
     id="node1"
     transform="translate(4,159)">
    <title
       id="title20">outputs69969828675660</title>
    <polygon
       style="fill:none;stroke:#000000"
       id="polygon22"
       points="236,-72 236,-43 131,-43 131,-43 131,-72 " />
    <text
       style="font-size:14px;text-anchor:start;font-family:Arial"
       id="text24"
       font-size="14.00"
       y="-54.233299"
       x="139">lidar_samples</text>
    <polygon
       style="fill:none;stroke:#000000"
       id="polygon26"
       points="236,-43 236,-15 131,-15 131,-15 131,-43 " />
    <text
       style="font-size:14px;text-anchor:start;font-family:Arial"
       id="text28"
       font-size="14.00"
       y="-25.733299"
       x="168">state</text>
  </g>
  <g
     class="node"
     id="node3"
     transform="translate(4,159)">
    <title
       id="title31">inputs69969828663460</title>
    <polygon
       style="fill:none;stroke:#000000"
       id="polygon33"
       points="448,-101 448,-72 273,-72 273,-72 273,-101 " />
    <text
       style="font-size:14px;text-anchor:start;font-family:Arial"
       id="text35"
       font-size="14.00"
       y="-83.233299"
       x="281">dynamic_transformations</text>
    <polygon
       style="fill:none;stroke:#000000"
       id="polygon37"
       points="448,-72 448,-44 273,-44 273,-44 273,-72 " />
    <text
       style="font-size:14px;text-anchor:start;font-family:Arial"
       id="text39"
       font-size="14.00"
       y="-54.733299"
       x="316">lidar_samples</text>
  </g>
  <g
     class="edge"
     id="edge2"
     transform="translate(4,159)">
    <title
       id="title42">outputs69969828675660:lidar_samples-&gt;inputs69969828663460:lidar_samples</title>
    <path
       style="fill:none;stroke:#000000"
       inkscape:connector-curvature="0"
       id="path44"
       d="m 231,-58 c 0,0 22.723,0 36.569,0" />
    <polygon
       style="fill:#000000;stroke:#000000"
       id="polygon46"
       points="268,-54.5001 268,-61.5001 268,-61.5001 278,-58 " />
  </g>
  <g
     class="node"
     id="node5"
     transform="translate(-148.29612,144.56436)">
    <title
       id="title49">frames_body69969828663460</title>
    <ellipse
       style="fill:none;stroke:#ff0000"
       sodipodi:ry="11.3137"
       sodipodi:rx="27.788099"
       sodipodi:cy="-53"
       sodipodi:cx="755"
       d="m 782.7881,-53 c 0,6.248384 -12.44116,11.3137 -27.7881,11.3137 -15.34694,0 -27.7881,-5.065316 -27.7881,-11.3137 0,-6.248384 12.44116,-11.3137 27.7881,-11.3137 15.34694,0 27.7881,5.065316 27.7881,11.3137 z"
       id="ellipse51"
       ry="11.3137"
       rx="27.788099"
       cy="-53"
       cx="755" />
    <text
       style="font-size:14px;text-anchor:middle;font-family:Arial"
       id="text53"
       font-size="14.00"
       y="-48.400002"
       x="755">body=</text>
  </g>
  <g
     class="node"
     id="node6"
     transform="translate(-19.097043,159.3609)">
    <title
       id="title56">frames_input69969828663460</title>
    <ellipse
       style="fill:none;stroke:#ff0000"
       sodipodi:ry="11.3137"
       sodipodi:rx="27.0758"
       sodipodi:cy="-73"
       sodipodi:cx="512"
       d="m 539.0758,-73 c 0,6.248384 -12.12225,11.3137 -27.0758,11.3137 -14.95355,0 -27.0758,-5.065316 -27.0758,-11.3137 0,-6.248384 12.12225,-11.3137 27.0758,-11.3137 14.95355,0 27.0758,5.065316 27.0758,11.3137 z"
       id="ellipse58"
       ry="11.3137"
       rx="27.0758"
       cy="-73"
       cx="512" />
    <text
       style="font-size:14px;text-anchor:middle;font-family:Arial"
       id="text60"
       font-size="14.00"
       y="-68.400002"
       x="512">input=</text>
  </g>
  <text
     x="486.11578"
     y="60.87196"
     font-size="14.00"
     id="text67"
     style="font-size:14px;text-anchor:start;font-family:Arial">LaserFilter::Task</text>
  <g
     class="node"
     id="node10"
     transform="translate(-176.44564,159.72178)">
    <title
       id="title70">outputs69969828663460</title>
    <polygon
       style="fill:none;stroke:#000000"
       id="polygon72"
       points="821,-110 821,-139 1058,-139 1058,-110 821,-110 " />
    <text
       style="font-size:14px;text-anchor:start;font-family:Arial"
       id="text74"
       font-size="14.00"
       y="-121.233"
       x="886.5">filtered_samples</text>
    <polygon
       style="fill:none;stroke:#000000"
       id="polygon76"
       points="821,-82 821,-110 1058,-110 1058,-82 821,-82 " />
    <text
       style="font-size:14px;text-anchor:start;font-family:Arial"
       id="text78"
       font-size="14.00"
       y="-92.733299"
       x="924">state</text>
    <polygon
       style="fill:none;stroke:#000000"
       id="polygon80"
       points="821,-54 821,-82 1058,-82 1058,-54 821,-54 " />
    <text
       style="font-size:14px;text-anchor:start;font-family:Arial"
       id="text82"
       font-size="14.00"
       y="-64.733299"
       x="880">transformer_status</text>
    <polygon
       style="fill:none;stroke:#000000"
       id="polygon84"
       points="821,-26 821,-54 1058,-54 1058,-26 821,-26 " />
    <text
       style="font-size:14px;text-anchor:start;font-family:Arial"
       id="text86"
       font-size="14.00"
       y="-36.733299"
       x="829">transformer_stream_aligner_status</text>
  </g>
  <g
     class="node"
     id="node7"
     transform="translate(-89.109953,149.61683)">
    <title
       id="title89">frames_input_body_producer69969828663460</title>
    <ellipse
       style="fill:none;stroke:#000000"
       sodipodi:ry="3.5"
       sodipodi:rx="3"
       sodipodi:cy="-61"
       sodipodi:cx="633"
       d="m 636,-61 c 0,1.932997 -1.34315,3.5 -3,3.5 -1.65685,0 -3,-1.567003 -3,-3.5 0,-1.932997 1.34315,-3.5 3,-3.5 1.65685,0 3,1.567003 3,3.5 z"
       id="ellipse91"
       ry="3.5"
       rx="3"
       cy="-61"
       cx="633" />
  </g>
  <g
     class="edge"
     id="edge20"
     transform="matrix(0.22562125,0,0,0.24124156,398.68146,103.62471)">
    <title
       id="title94">frames_input69969828663460-&gt;frames_input_body_producer69969828663460</title>
    <path
       style="fill:none;stroke:#000000;stroke-width:4.28631353"
       inkscape:connector-curvature="0"
       id="path96"
       d="m 538.854,-70.3368 c 30.356,3.0105 77.283,7.6644 90.545,8.9797" />
  </g>
  <path
     d="m 547.41005,89.20852 c 3.40759,0.29163 14.61683,1.250929 23.36206,1.999372"
     id="path101"
     inkscape:connector-curvature="0"
     style="fill:none;stroke:#000000;stroke-width:1" />
  <polygon
     points="726.728,-54.8539 716.52,-52.0158 716.979,-59.0008 716.979,-59.0008 "
     id="polygon103"
     style="fill:#000000;stroke:#000000"
     transform="translate(-148.29612,146.7297)" />
  <text
     x="52.427738"
     y="118.7667"
     font-size="14.00"
     id="text110"
     style="font-size:14px;text-anchor:start;font-family:Arial">Lidar::Task</text>
</svg>
