<?xml version="1.0" encoding="UTF-8" standalone="no"?>
<!-- Generated by graphviz version 2.26.3 (20100126.1600)
 -->

<!-- Title: _anonymous_0 Pages: 1 -->

<svg
   xmlns:dc="http://purl.org/dc/elements/1.1/"
   xmlns:cc="http://creativecommons.org/ns#"
   xmlns:rdf="http://www.w3.org/1999/02/22-rdf-syntax-ns#"
   xmlns:svg="http://www.w3.org/2000/svg"
   xmlns="http://www.w3.org/2000/svg"
   xmlns:sodipodi="http://sodipodi.sourceforge.net/DTD/sodipodi-0.dtd"
   xmlns:inkscape="http://www.inkscape.org/namespaces/inkscape"
   width="1124pt"
   height="176pt"
   viewBox="0.00 0.00 1124.00 176.00"
   id="svg2"
   version="1.1"
   inkscape:version="0.48.1 r9760"
   sodipodi:docname="transformer_roby_initial_with_servo.svg"
   inkscape:export-filename="/media/Data/rock/doc/src/documentation/data_processing/transformer_roby_initial_with_servo.png"
   inkscape:export-xdpi="39.983665"
   inkscape:export-ydpi="39.983665">
  <metadata
     id="metadata158">
    <rdf:RDF>
      <cc:Work
         rdf:about="">
        <dc:format>image/svg+xml</dc:format>
        <dc:type
           rdf:resource="http://purl.org/dc/dcmitype/StillImage" />
        <dc:title></dc:title>
      </cc:Work>
    </rdf:RDF>
  </metadata>
  <defs
     id="defs156" />
  <sodipodi:namedview
     pagecolor="#ffffff"
     bordercolor="#666666"
     borderopacity="1"
     objecttolerance="10"
     gridtolerance="10"
     guidetolerance="10"
     inkscape:pageopacity="0"
     inkscape:pageshadow="2"
     inkscape:window-width="1274"
     inkscape:window-height="773"
     id="namedview154"
     showgrid="false"
     inkscape:zoom="0.7544484"
     inkscape:cx="743.98644"
     inkscape:cy="39.052548"
     inkscape:window-x="0"
     inkscape:window-y="0"
     inkscape:window-maximized="1"
     inkscape:current-layer="svg2" />
  <g
     class="cluster"
     id="graph2"
     transform="matrix(0.85912356,0,0,1,44.290662,172)">
    <title
       id="title10">cluster_70259705211260</title>
    <polygon
       style="fill:none;stroke:#000000;stroke-width:1.07887757"
       id="polygon12"
       points="8,-88 8,-88 8,-160 286,-160 286,-88 " />
  </g>
  <g
     class="cluster"
     id="graph3"
     transform="matrix(0.77140766,0,0,1,73.949257,172)">
    <title
       id="title15">cluster_70259705225340</title>
    <polygon
       style="fill:none;stroke:#000000;stroke-width:1.13856554"
       id="polygon17"
       points="306,-21 306,-21 306,-149 1108,-149 1108,-21 " />
  </g>
  <g
     class="cluster"
     id="graph4"
     transform="matrix(0.84472258,0,0,1,45.769625,172)">
    <title
       id="title20">cluster_70259705238040</title>
    <polygon
       style="fill:none;stroke:#000000;stroke-width:1.08803523"
       id="polygon22"
       points="10,-8 10,-8 10,-80 269,-80 269,-8 " />
  </g>
  <g
     class="node"
     id="node1"
     transform="translate(4,172)">
    <title
       id="title25">outputs70259705238040</title>
    <polygon
       style="fill:none;stroke:#000000"
       id="polygon27"
       points="261,-72 261,-43 156,-43 156,-43 156,-72 " />
    <text
       style="font-size:14px;text-anchor:start;font-family:Arial"
       id="text29"
       font-size="14.00"
       y="-54.233299"
       x="164">lidar_samples</text>
    <polygon
       style="fill:none;stroke:#000000"
       id="polygon31"
       points="261,-43 261,-15 156,-15 156,-15 156,-43 " />
    <text
       style="font-size:14px;text-anchor:start;font-family:Arial"
       id="text33"
       font-size="14.00"
       y="-25.733299"
       x="193">state</text>
  </g>
  <g
     class="node"
     id="node3"
     transform="translate(4,172)">
    <title
       id="title36">inputs70259705225340</title>
    <polygon
       style="fill:none;stroke:#000000"
       id="polygon38"
       points="490,-105 490,-76 315,-76 315,-76 315,-105 " />
    <text
       style="font-size:14px;text-anchor:start;font-family:Arial"
       id="text40"
       font-size="14.00"
       y="-87.233299"
       x="323">dynamic_transformations</text>
    <polygon
       style="fill:none;stroke:#000000"
       id="polygon42"
       points="490,-76 490,-48 315,-48 315,-48 315,-76 " />
    <text
       style="font-size:14px;text-anchor:start;font-family:Arial"
       id="text44"
       font-size="14.00"
       y="-58.733299"
       x="358">lidar_samples</text>
  </g>
  <g
     class="edge"
     id="edge2"
     transform="translate(4,172)">
    <title
       id="title47">outputs70259705238040:lidar_samples-&gt;inputs70259705225340:lidar_samples</title>
    <path
       style="fill:none;stroke:#000000"
       inkscape:connector-curvature="0"
       id="path49"
       d="m 256,-58 c 0,0 36,-2.25 54,-3.375" />
    <polygon
       style="fill:#000000;stroke:#000000"
       id="polygon51"
       points="310.238,-57.8829 309.801,-64.8693 309.801,-64.8693 320,-62 " />
  </g>
  <g
     class="node"
     id="node4"
     transform="translate(4,172)">
    <title
       id="title79">outputs70259705211260</title>
    <polygon
       style="fill:none;stroke:#000000"
       id="polygon81"
       points="278,-152 278,-123 139,-123 139,-123 139,-152 " />
    <text
       style="font-size:14px;text-anchor:start;font-family:Arial"
       id="text83"
       font-size="14.00"
       y="-134.233"
       x="193">state</text>
    <polygon
       style="fill:none;stroke:#000000"
       id="polygon85"
       points="278,-123 278,-95 139,-95 139,-95 139,-123 " />
    <text
       style="font-size:14px;text-anchor:start;font-family:Arial"
       id="text87"
       font-size="14.00"
       y="-105.733"
       x="147">transform_samples</text>
  </g>
  <g
     class="edge"
     id="edge4"
     transform="translate(4,172)">
    <title
       id="title90">outputs70259705211260:transform_samples-&gt;inputs70259705225340:dynamic_transformations</title>
    <path
       style="fill:none;stroke:#000000"
       inkscape:connector-curvature="0"
       id="path92"
       d="m 273,-109 c 0,0 23.755,9.0978 37.489,14.3574" />
    <polygon
       style="fill:#000000;stroke:#000000"
       id="polygon94"
       points="309.41,-91.308 311.913,-97.845 311.913,-97.845 320,-91 " />
  </g>
  <text
     x="62.05283"
     y="53.370773"
     font-size="14.00"
     id="text101"
     style="font-size:14px;text-anchor:start;font-family:Arial">Servo::Task</text>
  <g
     class="node"
     id="node15"
     transform="translate(-179.44528,172)">
    <title
       id="title108">outputs70259705225340</title>
    <polygon
       style="fill:none;stroke:#000000"
       id="polygon110"
       points="1100,-112 863,-112 863,-112 863,-141 1100,-141 " />
    <text
       style="font-size:14px;text-anchor:start;font-family:Arial"
       id="text112"
       font-size="14.00"
       y="-123.233"
       x="928.5">filtered_samples</text>
    <polygon
       style="fill:none;stroke:#000000"
       id="polygon114"
       points="1100,-84 863,-84 863,-84 863,-112 1100,-112 " />
    <text
       style="font-size:14px;text-anchor:start;font-family:Arial"
       id="text116"
       font-size="14.00"
       y="-94.733299"
       x="966">state</text>
    <polygon
       style="fill:none;stroke:#000000"
       id="polygon118"
       points="1100,-56 863,-56 863,-56 863,-84 1100,-84 " />
    <text
       style="font-size:14px;text-anchor:start;font-family:Arial"
       id="text120"
       font-size="14.00"
       y="-66.733299"
       x="922">transformer_status</text>
    <polygon
       style="fill:none;stroke:#000000"
       id="polygon122"
       points="1100,-28 863,-28 863,-28 863,-56 1100,-56 " />
    <text
       style="font-size:14px;text-anchor:start;font-family:Arial"
       id="text124"
       font-size="14.00"
       y="-38.733299"
       x="871">transformer_stream_aligner_status</text>
  </g>
  <text
     x="71.975471"
     y="132.3101"
     font-size="14.00"
     id="text148"
     style="font-size:14px;text-anchor:start;font-family:Arial">Lidar::Task</text>
  <g
     class="node"
     id="node5"
     transform="translate(-108.88588,160.74066)">
    <title
       id="title49">frames_body69969828663460</title>
    <ellipse
       style="fill:none;stroke:#ff0000"
       sodipodi:ry="11.3137"
       sodipodi:rx="27.788099"
       sodipodi:cy="-53"
       sodipodi:cx="755"
       d="m 782.7881,-53 c 0,6.248384 -12.44116,11.3137 -27.7881,11.3137 -15.34694,0 -27.7881,-5.065316 -27.7881,-11.3137 0,-6.248384 12.44116,-11.3137 27.7881,-11.3137 15.34694,0 27.7881,5.065316 27.7881,11.3137 z"
       id="ellipse51"
       ry="11.3137"
       rx="27.788099"
       cy="-53"
       cx="755" />
    <text
       style="font-size:14px;text-anchor:middle;font-family:Arial"
       id="text53"
       font-size="14.00"
       y="-48.400002"
       x="755">body=</text>
  </g>
  <g
     class="node"
     id="node6"
     transform="translate(20.313202,175.53719)">
    <title
       id="title56">frames_input69969828663460</title>
    <ellipse
       style="fill:none;stroke:#ff0000"
       sodipodi:ry="11.3137"
       sodipodi:rx="27.0758"
       sodipodi:cy="-73"
       sodipodi:cx="512"
       d="m 539.0758,-73 c 0,6.248384 -12.12225,11.3137 -27.0758,11.3137 -14.95355,0 -27.0758,-5.065316 -27.0758,-11.3137 0,-6.248384 12.12225,-11.3137 27.0758,-11.3137 14.95355,0 27.0758,5.065316 27.0758,11.3137 z"
       id="ellipse58"
       ry="11.3137"
       rx="27.0758"
       cy="-73"
       cx="512" />
    <text
       style="font-size:14px;text-anchor:middle;font-family:Arial"
       id="text60"
       font-size="14.00"
       y="-68.400002"
       x="512">input=</text>
  </g>
  <text
     x="525.526"
     y="77.048256"
     font-size="14.00"
     id="text67"
     style="font-size:14px;text-anchor:start;font-family:Arial">LaserFilter::Task</text>
  <g
     class="node"
     id="node7"
     transform="translate(-49.699708,165.79313)">
    <title
       id="title89">frames_input_body_producer69969828663460</title>
    <ellipse
       style="fill:none;stroke:#000000"
       sodipodi:ry="3.5"
       sodipodi:rx="3"
       sodipodi:cy="-61"
       sodipodi:cx="633"
       d="m 636,-61 c 0,1.932997 -1.34315,3.5 -3,3.5 -1.65685,0 -3,-1.567003 -3,-3.5 0,-1.932997 1.34315,-3.5 3,-3.5 1.65685,0 3,1.567003 3,3.5 z"
       id="ellipse91"
       ry="3.5"
       rx="3"
       cy="-61"
       cx="633" />
  </g>
  <g
     class="edge"
     id="edge20"
     transform="matrix(0.22562125,0,0,0.24124156,438.09171,119.80101)">
    <title
       id="title94">frames_input69969828663460-&gt;frames_input_body_producer69969828663460</title>
    <path
       style="fill:none;stroke:#000000;stroke-width:4.28631353"
       inkscape:connector-curvature="0"
       id="path96"
       d="m 538.854,-70.3368 c 30.356,3.0105 77.283,7.6644 90.545,8.9797" />
  </g>
  <path
     d="m 586.82029,105.38482 c 3.40759,0.29163 14.61683,1.25093 23.36206,1.99937"
     id="path101"
     inkscape:connector-curvature="0"
     style="fill:none;stroke:#000000;stroke-width:1" />
  <polygon
     points="716.979,-59.0008 716.979,-59.0008 726.728,-54.8539 716.52,-52.0158 "
     id="polygon103"
     style="fill:#000000;stroke:#000000"
     transform="translate(-108.88588,162.906)" />
</svg>
